<svg xmlns="http://www.w3.org/2000/svg" viewBox="0 0 16 16" width="16" height="16" shape-rendering="crispEdges" role="img" aria-label="table">
  <rect x="2" y="1" width="12" height="1" fill="#26407a"/>
  <rect x="2" y="2" width="1" height="1" fill="#26407a"/>
  <rect x="3" y="2" width="10" height="1" fill="#5b8def"/>
  <rect x="13" y="2" width="1" height="1" fill="#26407a"/>
  <rect x="2" y="3" width="1" height="1" fill="#26407a"/>
  <rect x="3" y="3" width="10" height="1" fill="#a9c8ff"/>
  <rect x="13" y="3" width="1" height="1" fill="#26407a"/>
  <rect x="2" y="4" width="1" height="1" fill="#26407a"/>
  <rect x="3" y="4" width="4" height="1" fill="#5b8def"/>
  <rect x="7" y="4" width="1" height="1" fill="#26407a"/>
  <rect x="8" y="4" width="5" height="1" fill="#5b8def"/>
  <rect x="13" y="4" width="1" height="1" fill="#26407a"/>
  <rect x="2" y="5" width="1" height="1" fill="#26407a"/>
  <rect x="3" y="5" width="4" height="1" fill="#5b8def"/>
  <rect x="7" y="5" width="1" height="1" fill="#26407a"/>
  <rect x="8" y="5" width="5" height="1" fill="#5b8def"/>
  <rect x="13" y="5" width="1" height="1" fill="#26407a"/>
  <rect x="2" y="6" width="1" height="1" fill="#26407a"/>
  <rect x="3" y="6" width="10" height="1" fill="#a9c8ff"/>
  <rect x="13" y="6" width="1" height="1" fill="#26407a"/>
  <rect x="2" y="7" width="1" height="1" fill="#26407a"/>
  <rect x="3" y="7" width="4" height="1" fill="#5b8def"/>
  <rect x="7" y="7" width="1" height="1" fill="#26407a"/>
  <rect x="8" y="7" width="5" height="1" fill="#5b8def"/>
  <rect x="13" y="7" width="1" height="1" fill="#26407a"/>
  <rect x="2" y="8" width="1" height="1" fill="#26407a"/>
  <rect x="3" y="8" width="4" height="1" fill="#5b8def"/>
  <rect x="7" y="8" width="1" height="1" fill="#26407a"/>
  <rect x="8" y="8" width="5" height="1" fill="#5b8def"/>
  <rect x="13" y="8" width="1" height="1" fill="#26407a"/>
  <rect x="2" y="9" width="1" height="1" fill="#26407a"/>
  <rect x="3" y="9" width="10" height="1" fill="#a9c8ff"/>
  <rect x="13" y="9" width="1" height="1" fill="#26407a"/>
  <rect x="2" y="10" width="1" height="1" fill="#26407a"/>
  <rect x="3" y="10" width="4" height="1" fill="#5b8def"/>
  <rect x="7" y="10" width="1" height="1" fill="#26407a"/>
  <rect x="8" y="10" width="5" height="1" fill="#5b8def"/>
  <rect x="13" y="10" width="1" height="1" fill="#26407a"/>
  <rect x="2" y="11" width="1" height="1" fill="#26407a"/>
  <rect x="3" y="11" width="4" height="1" fill="#5b8def"/>
  <rect x="7" y="11" width="1" height="1" fill="#26407a"/>
  <rect x="8" y="11" width="5" height="1" fill="#5b8def"/>
  <rect x="13" y="11" width="1" height="1" fill="#26407a"/>
  <rect x="2" y="12" width="12" height="1" fill="#26407a"/>
</svg>
